<?xml version="1.0" encoding="UTF-8" standalone="no"?>
<svg
   xmlns:dc="http://purl.org/dc/elements/1.1/"
   xmlns:cc="http://creativecommons.org/ns#"
   xmlns:rdf="http://www.w3.org/1999/02/22-rdf-syntax-ns#"
   xmlns:svg="http://www.w3.org/2000/svg"
   xmlns="http://www.w3.org/2000/svg"
   viewBox="0 0 837.10669 142.42667"
   height="142.42667"
   width="837.10669"
   xml:space="preserve"
   id="svg2"
   version="1.1"><metadata
     id="metadata8"><rdf:RDF><cc:Work
         rdf:about=""><dc:format>image/svg+xml</dc:format><dc:type
           rdf:resource="http://purl.org/dc/dcmitype/StillImage" /></cc:Work></rdf:RDF></metadata><defs
     id="defs6" /><g
     transform="matrix(1.3333333,0,0,-1.3333333,0,142.42667)"
     id="g10"><g
       transform="scale(0.1)"
       id="g12"><path
         id="path14"
         style="fill:#1c63b7;fill-opacity:1;fill-rule:nonzero;stroke:none"
         d="m 1620.92,786.148 h 172.46 v -77.402 c 58.86,66.602 146.36,94.172 214.52,94.172 117.67,0 212.56,-55.449 256.84,-140 44.74,-85.488 45.99,-192.156 45.99,-290.43 V 9.41016 H 2124.26 V 375.328 c 0,60.285 0,137.414 -32.25,189.301 -26.64,40.652 -75.7,64.488 -123.38,64.488 -100.14,0 -161.25,-75.554 -161.25,-150.371 V 9.41016 H 1620.92 V 786.148" /><path
         id="path16"
         style="fill:#1c63b7;fill-opacity:1;fill-rule:nonzero;stroke:none"
         d="m 2422.99,1044.53 h 186.48 V 423.219 l 278.27,361.926 h 213.09 L 2798.76,405.184 3103.44,8.41016 H 2860.87 L 2609.47,366.707 V 8.41016 H 2422.99 V 1044.53" /><path
         id="path18"
         style="fill:#ed192e;fill-opacity:1;fill-rule:nonzero;stroke:none"
         d="m 6091.85,1044.53 h 186.46 V 8.41016 H 6091.85 V 1044.53" /><path
         id="path20"
         style="fill:#ed192e;fill-opacity:1;fill-rule:nonzero;stroke:none"
         d="m 5169.31,1068.24 c -295,0 -534.15,-239.142 -534.15,-534.123 C 4635.16,239.129 4874.31,0 5169.31,0 c 295.01,0 534.16,239.129 534.16,534.117 0,294.981 -239.15,534.123 -534.16,534.123 z m 2.09,-863.916 c -185.41,0 -331.51,147.891 -331.51,326.848 0,113.406 58.87,204.656 87.97,240.074 163.75,199.348 88.13,247.084 88.13,247.084 433.12,-103.959 483.51,-350.209 483.51,-491.787 0,-158.215 -135.18,-322.219 -328.1,-322.219" /><path
         id="path22"
         style="fill:#ed192e;fill-opacity:1;fill-rule:nonzero;stroke:none"
         d="m 5793.1,785.145 h 186.5 V 8.41016 H 5793.1 V 785.145" /><path
         id="path24"
         style="fill:#ed192e;fill-opacity:1;fill-rule:nonzero;stroke:none"
         d="m 5979.05,884.402 h -185.42 v 161.138 h 185.42 V 884.402" /><path
         id="path26"
         style="fill:#1c63b7;fill-opacity:1;fill-rule:nonzero;stroke:none"
         d="m 555.957,575.848 c 83.281,36.445 134.91,128.984 134.91,210.3 0,96.739 -76.133,259.392 -332.801,259.392 H 0 V 9.41016 h 314.734 c 360.586,0 431.329,185.43384 431.329,319.68784 0,117.754 -65.196,210.285 -190.106,246.75 z M 353.301,867.496 c 84.824,0 126.277,-61.648 126.277,-105.683 0,-41.094 -24.656,-82.196 -64.773,-99.801 C 374.719,644.391 312.781,645.855 268.059,645.855 H 186.395 V 867.496 Z M 327.234,195.867 H 186.395 v 276.004 h 162.699 c 153.14,0 185.672,-73.73 185.672,-128.68 0,-60.07 -25.032,-147.324 -207.532,-147.324" /><path
         id="path28"
         style="fill:#1c63b7;fill-opacity:1;fill-rule:nonzero;stroke:none"
         d="m 3428.78,635.594 c 94.89,0 181.59,-62.5 212.26,-163.098 h -425.71 c 27.92,97.805 121.32,163.098 213.45,163.098 z m 147.48,-421.731 c -46.52,-31.367 -87.15,-43.445 -148.08,-43.445 -100.54,0 -186.48,60.84 -214.38,150.176 h 603.24 c 0,0 4.57,49.402 4.57,83.601 0,216.34 -169.36,398.575 -389.9,398.575 -231.74,0 -410.4,-180.829 -410.4,-409.754 C 3021.31,168.289 3204.16,0 3428.91,0 3601.4,0 3699,74.9219 3752.24,144.371 l -175.98,69.492" /><path
         id="path30"
         style="fill:#1c63b7;fill-opacity:1;fill-rule:nonzero;stroke:none"
         d="m 4424.98,788.172 c 0,0 -26.49,3.719 -78.37,3.719 -83.8,0 -206,-40.555 -269.64,-112.801 V 785.145 H 3907.32 V 8.41016 h 186.51 V 441.402 c 0,49.375 50.21,170.637 241.29,170.637 45.03,0 89.86,-13.684 89.86,-13.684 v 189.817" /><path
         id="path32"
         style="fill:#1c63b7;fill-opacity:1;fill-rule:nonzero;stroke:none"
         d="M 1507.97,9.32813 H 1336.91 V 96.2461 C 1284.11,26.6992 1197.24,0 1125.74,0 1033.2,0 951.738,21.4102 891.055,92.0508 824.492,169.52 816.758,247.676 816.758,347.203 V 786.07 H 1003.22 V 404.703 c 0,-47.676 1.41,-113.562 23.84,-158.426 25.24,-50.488 75.71,-75.949 133.19,-75.949 125.73,0 161.25,102.016 161.25,178.41 V 786.07 h 186.47 V 9.32813" /></g></g></svg>