<svg height="24.7mm" viewBox="0 0 321.12 70.03" width="113.29mm" xmlns="http://www.w3.org/2000/svg"><g fill="#cf1130"><path d="m84.77 55.39v-46.02c0-.46.22-.89.58-1.17.41-.31.9-.48 1.41-.48h23.1c8.85 0 16.1 2.04 21.74 6.18 2.91 2.08 5.29 4.81 6.96 7.98 1.6 3.23 2.42 6.8 2.38 10.41.06 3.63-.76 7.21-2.38 10.46-1.64 3.2-4.02 5.95-6.96 8.03-2.94 2.07-6.21 3.62-9.68 4.57-3.93 1.07-7.99 1.59-12.06 1.56h-23.1c-.51.03-1.02-.14-1.41-.48-.38-.2-.61-.6-.58-1.02m18.73-10.8h6.32c1.65 0 3.3-.16 4.91-.48 1.63-.28 3.19-.9 4.57-1.8 1.41-.92 2.57-2.2 3.36-3.69.95-1.93 1.4-4.07 1.31-6.23.09-2.15-.36-4.29-1.31-6.23-.79-1.51-1.96-2.78-3.41-3.69-1.4-.88-2.95-1.49-4.57-1.8-1.6-.3-3.23-.46-4.86-.48h-6.32c-.53-.02-1.05.15-1.46.48-.38.27-.6.71-.58 1.17v21.09c0 .46.22.89.58 1.17.42.32.93.49 1.46.48"/><path d="m170.04 56.99h-12.65c-.53.03-1.05-.14-1.46-.48-.37-.26-.59-.68-.58-1.12v-46.02c0-.45.22-.87.58-1.12.42-.32.93-.49 1.46-.48h26.26c3.07-.03 6.12.41 9.05 1.31 2.56.77 4.95 2 7.05 3.65 1.91 1.51 3.47 3.42 4.57 5.59 1.13 2.21 1.7 4.67 1.65 7.15 0 1.45-.21 2.89-.63 4.28-.43 1.4-1.03 2.74-1.8 3.99s-1.71 2.39-2.77 3.41c-1.08 1.02-2.31 1.87-3.65 2.53-.39.22-.7.56-.88.97-.14.4-.03.85.29 1.12 2.14 2.24 4.38 4.57 6.76 6.9 2.38 2.38 4.47 4.52 6.32 6.52.34.29.44.77.24 1.17-.15.44-.53.63-1.12.63h-15.71c-.62-.02-1.23-.15-1.8-.39-.55-.18-1.06-.5-1.46-.92-1.8-1.9-3.55-3.79-5.35-5.74l-5.25-5.84c-.41-.4-.89-.71-1.41-.92-.56-.23-1.15-.37-1.75-.39h-1.95c-.52-.03-1.02.14-1.41.48-.38.27-.6.71-.58 1.17v10.9c0 .45-.22.87-.58 1.12-.4.36-.92.55-1.46.53m4.04-26.51h8.91c.71 0 1.41-.1 2.09-.29.71-.2 1.38-.51 1.99-.92.6-.42 1.11-.95 1.51-1.56.4-.68.61-1.45.58-2.24-.02-.53-.11-1.06-.29-1.56-.5-1.42-1.58-2.57-2.97-3.16-.93-.41-1.95-.61-2.97-.58h-8.85c-.52-.03-1.02.14-1.41.48-.37.26-.59.68-.58 1.12v7.15c0 .45.22.87.58 1.12.41.3.91.45 1.41.44"/><path d="m239.94 56.99h-12.69c-.53.04-1.06-.13-1.46-.48-.34-.28-.53-.69-.53-1.12v-45.92c0-.44.2-.85.53-1.12.42-.32.93-.49 1.46-.48h12.69c.51-.03 1.02.15 1.41.48.37.26.59.68.58 1.12v45.92c0 .45-.22.87-.58 1.12-.39.34-.89.52-1.41.48"/><path d="m278.17 55.49-25.53-45.77c-.28-.41-.3-.94-.05-1.36.35-.44.9-.66 1.46-.58h13.77c.58 0 1.15.15 1.65.44.47.25.89.6 1.22 1.02l14.88 27.04c.25.38.67.6 1.12.58.45 0 .87-.22 1.12-.58l14.79-27c.33-.42.74-.77 1.22-1.02.5-.29 1.07-.44 1.65-.44h14.06c.52-.04 1.03.17 1.36.58.27.31.31.77.1 1.12l-25.78 46.06c-.33.42-.74.77-1.22 1.02-.5.29-1.07.44-1.65.44h-11.24c-.58 0-1.15-.15-1.65-.44-.5-.27-.94-.65-1.27-1.12"/><path d="m48.39 34.18-47.03-32.44c-.46-.23-1.03-.05-1.26.42-.11.22-.13.47-.05.71l10.31 31.85c.05.19.05.39 0 .58l-10.32 31.86c-.16.49.11 1.02.61 1.18.23.07.49.05.71-.05l47.04-32.45c.46-.23.64-.78.41-1.24-.09-.18-.23-.32-.41-.41"/><path d="m59.24 20.71-29.05-20.04c-1.72-1.18-4.07-.75-5.25.97s-.75 4.07.97 5.25l29.14 20.09.15.1c4.38 2.76 5.69 8.54 2.94 12.92-.75 1.19-1.75 2.19-2.94 2.94l-.05.05-29.19 20.14c-1.71 1.19-2.14 3.53-.97 5.25.7 1.04 1.86 1.66 3.11 1.65.77.01 1.52-.23 2.14-.68l29.04-20.04c7.89-5.03 10.2-15.51 5.17-23.4-1.34-2.1-3.12-3.87-5.22-5.2"/></g></svg>